<svg width="20" height="20" viewBox="0 0 20 20" fill="none" xmlns="http://www.w3.org/2000/svg">
<g clip-path="url(#clip0_7_2955)">
<path d="M16.6666 11.7825C17.357 11.7825 17.9166 11.2229 17.9166 10.5325C17.9166 9.84214 17.357 9.28247 16.6666 9.28247C15.9763 9.28247 15.4166 9.84214 15.4166 10.5325C15.4166 11.2229 15.9763 11.7825 16.6666 11.7825Z" stroke="white" stroke-width="2" stroke-linecap="round" stroke-linejoin="round"/>
<path d="M4.99996 12.6159C5.46019 12.6159 5.83329 12.2428 5.83329 11.7826C5.83329 11.3224 5.46019 10.9492 4.99996 10.9492C4.53973 10.9492 4.16663 11.3224 4.16663 11.7826C4.16663 12.2428 4.53973 12.6159 4.99996 12.6159Z" stroke="white" stroke-width="2" stroke-linecap="round" stroke-linejoin="round"/>
<path d="M9.16667 16.7826C10.0872 16.7826 10.8333 16.0364 10.8333 15.1159C10.8333 14.1955 10.0872 13.4492 9.16667 13.4492C8.24619 13.4492 7.5 14.1955 7.5 15.1159C7.5 16.0364 8.24619 16.7826 9.16667 16.7826Z" stroke="white" stroke-width="2" stroke-linecap="round" stroke-linejoin="round"/>
<path d="M19.5833 7.07766V16.4676C19.5831 16.67 19.5095 16.8653 19.3759 17.0173C19.2424 17.1692 19.058 17.2674 18.8575 17.2935L1.35746 19.5768C1.23991 19.5921 1.12045 19.5821 1.00707 19.5476C0.893676 19.513 0.788959 19.4547 0.699911 19.3765C0.610864 19.2982 0.539534 19.2019 0.490683 19.0939C0.441831 18.9859 0.416584 18.8687 0.416626 18.7501C0.416524 18.5716 0.471312 18.3973 0.573567 18.251C0.675823 18.1045 0.820604 17.9932 0.988293 17.9318C1.35641 17.7976 1.66547 17.538 1.8612 17.1985C2.05693 16.8591 2.12681 16.4615 2.05858 16.0757C1.99034 15.6899 1.78835 15.3405 1.48808 15.0887C1.18781 14.837 0.808448 14.6991 0.416626 14.6993V9.95429C0.416554 9.83595 0.441711 9.71887 0.490423 9.61096C0.539134 9.50304 0.610282 9.40679 0.699126 9.32846L10.5908 0.624324C10.7515 0.483112 10.9604 0.409116 11.1741 0.417657C14.8783 0.561824 19.5833 3.03516 19.5833 7.07766Z" stroke="white" stroke-width="2" stroke-linecap="round" stroke-linejoin="round"/>
<path d="M19.5833 7.07764L0.513306 9.5651" stroke="white" stroke-width="2" stroke-linecap="round" stroke-linejoin="round"/>
<path d="M11.25 11.1574C11.1349 11.1574 11.0416 11.0641 11.0416 10.9491C11.0416 10.8341 11.1349 10.7407 11.25 10.7407" stroke="white" stroke-width="2"/>
<path d="M11.25 11.1574C11.3651 11.1574 11.4583 11.0641 11.4583 10.9491C11.4583 10.8341 11.3651 10.7407 11.25 10.7407" stroke="white" stroke-width="2"/>
<path d="M15 14.9074C14.8849 14.9074 14.7916 14.8141 14.7916 14.6991C14.7916 14.5841 14.8849 14.4907 15 14.4907" stroke="white" stroke-width="2"/>
<path d="M15 14.9074C15.1151 14.9074 15.2083 14.8141 15.2083 14.6991C15.2083 14.5841 15.1151 14.4907 15 14.4907" stroke="white" stroke-width="2"/>
</g>
<defs>
<clipPath id="clip0_7_2955">
<rect width="20" height="20" fill="white"/>
</clipPath>
</defs>
</svg>
