<svg width="20" height="20" viewBox="0 0 20 20" fill="none" xmlns="http://www.w3.org/2000/svg">
<g clip-path="url(#clip0_7_2980)">
<path d="M8.31666 4.75099C7.76528 4.75099 7.23648 4.53196 6.8466 4.14207C6.4567 3.75218 6.23767 3.22338 6.23767 2.672C6.23767 2.12063 6.4567 1.59183 6.8466 1.20194C7.23648 0.812053 7.76528 0.593018 8.31666 0.593018H17.4642C18.0156 0.593018 18.5443 0.812053 18.9343 1.20194C19.3242 1.59183 19.5432 2.12063 19.5432 2.672C19.5432 3.22338 19.3242 3.75218 18.9343 4.14207C18.5443 4.53196 18.0156 4.75099 17.4642 4.75099H8.31666Z" stroke="white" stroke-width="2" stroke-linecap="round" stroke-linejoin="round"/>
<path d="M9.25635 0.651367L10.8198 2.20645" stroke="white" stroke-width="2" stroke-linecap="round" stroke-linejoin="round"/>
<path d="M12.1005 0.593018L13.722 2.20631" stroke="white" stroke-width="2" stroke-linecap="round" stroke-linejoin="round"/>
<path d="M15.0027 0.593018L16.6243 2.20631" stroke="white" stroke-width="2" stroke-linecap="round" stroke-linejoin="round"/>
<path d="M10.3956 11.3621C10.4038 12.3507 10.1182 13.3195 9.57496 14.1455C9.03179 14.9715 8.2554 15.6175 7.34443 16.0015C6.43347 16.3855 5.42895 16.4903 4.45834 16.3025C3.48774 16.1146 2.5948 15.6428 1.89283 14.9466C1.19086 14.2505 0.711506 13.3615 0.515589 12.3925C0.319671 11.4235 0.416023 10.4182 0.792419 9.50404C1.16882 8.58987 1.80828 7.80816 2.62969 7.25804C3.4511 6.70792 4.41742 6.41421 5.40603 6.41417H9.97979C10.6415 6.35903 11.2979 6.569 11.8048 6.99787C12.3116 7.42675 12.6274 8.0394 12.6825 8.70104C12.7376 9.36271 12.5276 10.0192 12.0988 10.526C11.6699 11.0329 11.0572 11.3486 10.3956 11.4037V11.3621Z" stroke="white" stroke-width="2" stroke-linecap="round" stroke-linejoin="round"/>
<path d="M5.40605 13.8985C6.78387 13.8985 7.90083 12.7815 7.90083 11.4037C7.90083 10.0259 6.78387 8.90894 5.40605 8.90894C4.02821 8.90894 2.91125 10.0259 2.91125 11.4037C2.91125 12.7815 4.02821 13.8985 5.40605 13.8985Z" stroke="white" stroke-width="2" stroke-linecap="round" stroke-linejoin="round"/>
<path d="M12.6992 18.4474C12.6235 17.8773 12.7773 17.3006 13.1265 16.8437C13.4758 16.3869 13.992 16.0873 14.5619 16.0108C15.1318 15.9342 15.6481 15.6347 15.9973 15.1779C16.3466 14.7211 16.5003 14.1442 16.4247 13.5742C16.3873 13.2918 16.4063 13.0048 16.4802 12.7297C16.5541 12.4547 16.6817 12.1968 16.8555 11.9712C17.0294 11.7456 17.2462 11.5565 17.4933 11.4148C17.7405 11.2732 18.0132 11.1819 18.2958 11.146" stroke="white" stroke-width="2" stroke-linecap="round" stroke-linejoin="round"/>
<path d="M13.8384 19.3122C13.8988 19.3593 13.9703 19.39 14.046 19.4017C14.1216 19.4134 14.199 19.4054 14.2708 19.3787C14.3433 19.3545 14.4082 19.3119 14.4592 19.255C14.5103 19.1982 14.5456 19.129 14.5619 19.0544C14.6624 18.6244 14.8911 18.2352 15.2179 17.9382C15.5445 17.6411 15.9538 17.4504 16.3914 17.3912C16.9624 17.3244 17.4835 17.0339 17.8406 16.5834C18.1976 16.1329 18.3613 15.559 18.2957 14.9879C18.2397 14.5708 18.3067 14.1464 18.4884 13.7667C18.67 13.3871 18.9586 13.0687 19.3186 12.8507C19.3941 12.8059 19.4575 12.7434 19.5035 12.6685C19.5494 12.5937 19.5764 12.5088 19.5821 12.4211C19.5879 12.3335 19.5722 12.2459 19.5364 12.1656C19.5006 12.0854 19.4459 12.0152 19.3768 11.9609L16.6325 9.89852C16.5698 9.84944 16.4972 9.81444 16.4198 9.79577C16.3423 9.7771 16.2617 9.77527 16.1835 9.79044C15.6683 9.92052 15.219 10.2358 14.9215 10.6759C14.6239 11.1162 14.4989 11.6506 14.5702 12.1771C14.6458 12.7472 14.4921 13.3239 14.1429 13.7808C13.7936 14.2376 13.2774 14.5372 12.7075 14.6137C12.1763 14.6834 11.6896 14.9469 11.3412 15.3537C10.9927 15.7605 10.807 16.2819 10.8197 16.8174C10.8234 16.8854 10.8415 16.9517 10.8731 17.0119C10.9047 17.0723 10.9489 17.125 11.0026 17.1667L13.8384 19.3122Z" stroke="white" stroke-width="2" stroke-linecap="round" stroke-linejoin="round"/>
<path d="M4.57448 11.1959C4.45966 11.1959 4.36658 11.1028 4.36658 10.9879C4.36658 10.8731 4.45966 10.78 4.57448 10.78" stroke="white" stroke-width="2"/>
<path d="M4.57446 11.1959C4.68929 11.1959 4.78236 11.1028 4.78236 10.9879C4.78236 10.8731 4.68929 10.78 4.57446 10.78" stroke="white" stroke-width="2"/>
</g>
<defs>
<clipPath id="clip0_7_2980">
<rect width="20" height="20" fill="white"/>
</clipPath>
</defs>
</svg>
