<svg width="20" height="20" viewBox="0 0 20 20" fill="none" xmlns="http://www.w3.org/2000/svg">
<g clip-path="url(#clip0_7_2942)">
<path d="M9.99998 19.5833C14.6875 19.5833 20.8333 7.08833 13.3333 6.25H6.66665C-0.833351 7.08833 5.31248 19.5833 9.99998 19.5833Z" stroke="white" stroke-width="2" stroke-linecap="round" stroke-linejoin="round"/>
<path d="M9.16667 4.58341C8.0616 4.58341 7.00179 4.14443 6.22039 3.36303C5.43899 2.58162 5 1.52182 5 0.416748C6.10507 0.416748 7.16488 0.855735 7.94628 1.63714C8.72768 2.41854 9.16667 3.47835 9.16667 4.58341Z" stroke="white" stroke-width="2" stroke-linecap="round" stroke-linejoin="round"/>
<path d="M10.8334 4.58341C11.9384 4.58341 12.9983 4.14443 13.7797 3.36303C14.5611 2.58162 15 1.52182 15 0.416748C13.895 0.416748 12.8352 0.855735 12.0538 1.63714C11.2724 2.41854 10.8334 3.47835 10.8334 4.58341Z" stroke="white" stroke-width="2" stroke-linecap="round" stroke-linejoin="round"/>
<path d="M7.70837 12.5L8.54171 13.3333" stroke="white" stroke-width="2" stroke-linecap="round" stroke-linejoin="round"/>
<path d="M11.4584 12.5L12.2917 13.3333" stroke="white" stroke-width="2" stroke-linecap="round" stroke-linejoin="round"/>
<path d="M5.83337 9.16675L6.66671 10.0001" stroke="white" stroke-width="2" stroke-linecap="round" stroke-linejoin="round"/>
<path d="M9.58337 9.16675L10.4167 10.0001" stroke="white" stroke-width="2" stroke-linecap="round" stroke-linejoin="round"/>
<path d="M13.3334 9.16675L14.1667 10.0001" stroke="white" stroke-width="2" stroke-linecap="round" stroke-linejoin="round"/>
<path d="M9.58337 15.4167L10.4167 16.2501" stroke="white" stroke-width="2" stroke-linecap="round" stroke-linejoin="round"/>
</g>
<defs>
<clipPath id="clip0_7_2942">
<rect width="20" height="20" fill="white"/>
</clipPath>
</defs>
</svg>
