<svg width="22" height="21" viewBox="0 0 22 21" fill="none" xmlns="http://www.w3.org/2000/svg">
<path d="M10.9834 10.3196L11.8167 19.6806" stroke="white" stroke-width="2" stroke-linecap="round" stroke-linejoin="round"/>
<path d="M3.50012 10.1119C2.76848 9.8145 2.13185 9.2348 1.68239 8.45676C1.23293 7.67872 0.993969 6.74272 1.00012 5.78428C1.00229 4.51983 1.40545 3.30764 2.12183 2.4116C2.83821 1.51556 3.80981 1.00821 4.82512 1H10.4751C11.4933 1.00274 12.4692 1.50768 13.1892 2.40431C13.9091 3.30094 14.3146 4.51625 14.3168 5.78428C14.322 6.92411 13.9816 8.02441 13.3636 8.86522C12.7456 9.70602 11.8956 10.2254 10.9834 10.3195" stroke="white" stroke-width="2" stroke-linecap="round" stroke-linejoin="round"/>
<path d="M16.4001 10.3402C17.3946 10.3402 18.3485 9.84821 19.0517 8.97239C19.755 8.09658 20.1501 6.90871 20.1501 5.67012C20.1501 4.43153 19.755 3.24366 19.0517 2.36785C18.3485 1.49203 17.3946 1 16.4001 1H9.7334" stroke="white" stroke-width="2" stroke-linecap="round" stroke-linejoin="round"/>
<path d="M3.50015 10.1118L2.78348 18.4973C2.76668 18.6452 2.77573 18.796 2.81001 18.9392C2.8443 19.0824 2.90301 19.2147 2.98214 19.327C3.06126 19.4393 3.15893 19.5291 3.26847 19.5901C3.37801 19.651 3.49683 19.6819 3.61681 19.6804H17.6501C17.7699 19.6817 17.8884 19.6508 17.9977 19.59C18.107 19.5291 18.2045 19.4396 18.2835 19.3275C18.3614 19.2144 18.4189 19.0817 18.452 18.9384C18.4851 18.7952 18.493 18.6447 18.4751 18.4973L17.7501 10.0288" stroke="white" stroke-width="2" stroke-linecap="round" stroke-linejoin="round"/>
</svg>
