<svg width="20" height="20" viewBox="0 0 20 20" fill="none" xmlns="http://www.w3.org/2000/svg">
<g clip-path="url(#clip0_7_2966)">
<path d="M13.8225 7.65666C14.7117 8.06416 16.0892 7.55333 17.3117 7.23999C16.9785 7.81573 16.8567 8.48966 16.9671 9.14561C17.0776 9.80156 17.4134 10.3984 17.9167 10.8333C18.4095 10.3558 18.8026 9.78526 19.0734 9.15474C19.3442 8.52421 19.4871 7.84623 19.494 7.16006C19.5009 6.47389 19.3716 5.79318 19.1136 5.15733C18.8556 4.52149 18.474 3.94316 17.9909 3.45583C17.4765 3.00171 16.8772 2.65415 16.2276 2.43329C15.578 2.21243 14.891 2.12265 14.2065 2.16915C13.5219 2.21566 12.8534 2.39752 12.2396 2.70421C11.6259 3.0109 11.0791 3.43632 10.6309 3.95583C10.6309 3.95583 11.4934 5.42749 14.1184 4.69916C14.2756 5.69404 14.1737 6.71263 13.8225 7.65666Z" stroke="white" stroke-width="2" stroke-linecap="round" stroke-linejoin="round"/>
<path d="M17.9967 3.45825L19.5834 1.87158" stroke="white" stroke-width="2" stroke-linecap="round" stroke-linejoin="round"/>
<path d="M11.5258 4.66675C10.1608 6.53341 8.56834 8.98258 3.92167 8.86092C0.714171 8.77758 -0.635829 13.1034 1.33834 15.9442C5.04084 21.2659 14.1042 15.8909 17.4408 10.3117" stroke="white" stroke-width="2" stroke-linecap="round" stroke-linejoin="round"/>
<path d="M3.75 11.8835C4.78449 12.1033 5.8571 12.0663 6.874 11.7758C7.89091 11.4853 8.82114 10.95 9.58333 10.2168" stroke="white" stroke-width="2" stroke-linecap="round" stroke-linejoin="round"/>
</g>
<defs>
<clipPath id="clip0_7_2966">
<rect width="20" height="20" fill="white"/>
</clipPath>
</defs>
</svg>
