<svg width="20" height="20" viewBox="0 0 20 20" fill="none" xmlns="http://www.w3.org/2000/svg">
<g clip-path="url(#clip0_7_2971)">
<path d="M9.99996 12.7083C11.6666 6.875 19.5833 6.875 19.5833 6.875V8.95833C19.5833 11.5 18.5736 13.9375 16.7764 15.7348C14.9792 17.532 12.5416 18.5417 9.99996 18.5417C7.4583 18.5417 5.02074 17.532 3.22352 15.7348C1.4263 13.9375 0.416626 11.5 0.416626 8.95833V6.875C0.416626 6.875 12.9816 6.875 9.78496 18.5417" stroke="white" stroke-width="2" stroke-linecap="round" stroke-linejoin="round"/>
<path d="M17.8725 7.02574C17.902 6.75703 17.9167 6.4869 17.9167 6.21658V4.53324C17.9167 4.53324 11.5084 3.78324 10 7.92658C8.49171 3.77991 2.08337 4.53324 2.08337 4.53324V6.21658C2.08334 6.4869 2.09808 6.75703 2.12754 7.02574" stroke="white" stroke-width="2" stroke-linecap="round" stroke-linejoin="round"/>
<path d="M15.3942 4.54997C14.8432 3.60848 14.0554 2.8276 13.1091 2.28495C12.1627 1.7423 11.0909 1.45679 10 1.45679C8.90914 1.45679 7.83727 1.7423 6.89095 2.28495C5.94463 2.8276 5.15682 3.60848 4.60583 4.54997" stroke="white" stroke-width="2" stroke-linecap="round" stroke-linejoin="round"/>
<path d="M2.91661 15.4108C2.91661 15.4108 0.36911 12.0066 3.93578 9.64331" stroke="white" stroke-width="2" stroke-linecap="round" stroke-linejoin="round"/>
<path d="M6.35748 17.825C6.35748 17.825 3.83331 14.4017 7.39581 12.0383" stroke="white" stroke-width="2" stroke-linecap="round" stroke-linejoin="round"/>
<path d="M17.0892 15.4108C17.0892 15.4108 19.6342 12.0066 16.0675 9.64331" stroke="white" stroke-width="2" stroke-linecap="round" stroke-linejoin="round"/>
<path d="M13.6459 17.825C13.6459 17.825 16.1742 14.4017 12.6075 12.0383" stroke="white" stroke-width="2" stroke-linecap="round" stroke-linejoin="round"/>
<path d="M11.0192 1.54321C10.219 2.14531 9.63402 2.98924 9.35108 3.94989C9.06814 4.91055 9.10225 5.9368 9.44838 6.87655" stroke="white" stroke-width="2" stroke-linecap="round" stroke-linejoin="round"/>
</g>
<defs>
<clipPath id="clip0_7_2971">
<rect width="20" height="20" fill="white"/>
</clipPath>
</defs>
</svg>
