<svg width="20" height="20" viewBox="0 0 20 20" fill="none" xmlns="http://www.w3.org/2000/svg">
<g clip-path="url(#clip0_7_2952)">
<path d="M19.5833 6.26497C19.5833 3.04331 15.2925 0.431641 9.99996 0.431641C4.70746 0.431641 0.416626 3.04331 0.416626 6.26497C0.416626 6.37441 0.438181 6.48277 0.48006 6.58388C0.521939 6.68498 0.583322 6.77685 0.660704 6.85423C0.738086 6.93161 0.829952 6.99299 0.931056 7.03487C1.03216 7.07675 1.14052 7.09831 1.24996 7.09831H18.75C18.971 7.09831 19.1829 7.01051 19.3392 6.85423C19.4955 6.69795 19.5833 6.48599 19.5833 6.26497Z" stroke="white" stroke-width="2" stroke-linecap="round" stroke-linejoin="round"/>
<path d="M11.2499 7.09839C11.2499 7.09839 12.5674 15.9234 10.8183 18.4942C9.17744 20.9042 5.15161 18.8942 7.32661 16.0567C8.59411 14.4034 8.74994 7.09839 8.74994 7.09839" stroke="white" stroke-width="2" stroke-linecap="round" stroke-linejoin="round"/>
</g>
<defs>
<clipPath id="clip0_7_2952">
<rect width="20" height="20" fill="white"/>
</clipPath>
</defs>
</svg>
