<svg width="20" height="20" viewBox="0 0 20 20" fill="none" xmlns="http://www.w3.org/2000/svg">
<g clip-path="url(#clip0_7_2930)">
<path d="M2.30668 13.25C1.71121 12.7317 1.23428 12.0913 0.908306 11.3724C0.582328 10.6534 0.414938 9.87271 0.41751 9.0833C0.46441 7.10073 1.15085 5.18641 2.37448 3.62579C3.5981 2.06517 5.29337 0.941843 7.20751 0.423302C7.24807 0.412287 7.29115 0.415219 7.32984 0.431625C7.36854 0.448032 7.4006 0.476962 7.42088 0.513773C7.44116 0.550584 7.44848 0.593141 7.44167 0.634614C7.43487 0.676087 7.41432 0.71407 7.38334 0.742468C6.98902 1.08092 6.66703 1.49544 6.43664 1.96123C6.20625 2.42702 6.0722 2.9345 6.04251 3.4533C6.04188 3.97958 6.14864 4.50046 6.35626 4.98406C6.56389 5.46765 6.86801 5.9038 7.25001 6.2658C7.84251 5.67129 8.24807 4.91637 8.41668 4.09414C8.42257 4.06572 8.43502 4.03906 8.45302 4.01629C8.47102 3.99353 8.49408 3.97527 8.52037 3.96297C8.54666 3.95068 8.57546 3.94468 8.60447 3.94546C8.63348 3.94624 8.66192 3.95378 8.68751 3.96747C9.59599 4.47483 10.3517 5.21669 10.8757 6.11567C11.3997 7.01464 11.6729 8.03777 11.6667 9.0783C11.6672 9.59279 11.5966 10.1049 11.4567 10.6" stroke="white" stroke-width="2" stroke-linecap="round" stroke-linejoin="round"/>
<path d="M7.2759 11.6442C7.58881 11.2847 7.79135 10.8426 7.85923 10.3708C7.11349 10.3647 6.4 10.0659 5.87251 9.53872C5.34502 9.01154 5.04576 8.29822 5.03923 7.55249C4.5406 7.62307 4.0751 7.84324 3.70421 8.18392C3.33333 8.52461 3.0745 8.96977 2.96192 9.46064C2.84934 9.9515 2.8883 10.465 3.07365 10.9332C3.259 11.4015 3.58203 11.8025 4.00006 12.0833" stroke="white" stroke-width="2" stroke-linecap="round" stroke-linejoin="round"/>
<path d="M3.75 14.9166C3.75 15.9166 6.08333 19.5833 11.0833 19.5833C17.4167 19.5833 20.5658 12.7266 18.0833 10.9166C14.4167 8.24997 13.625 12.3241 10.4167 13.5833C7.20833 14.8425 3.75 13.4283 3.75 14.9166Z" stroke="white" stroke-width="2" stroke-linecap="round" stroke-linejoin="round"/>
<path d="M16.7308 10.1833C17.0558 9.76 18.1083 8.9175 17.39 8.12666C17.2129 7.99306 17.0911 7.79901 17.0477 7.58143C17.0044 7.36384 17.0426 7.13793 17.155 6.94666C17.1951 6.86887 17.2504 6.79982 17.3174 6.74354C17.3845 6.68725 17.462 6.64485 17.5456 6.6188C17.6292 6.59275 17.7171 6.58357 17.8043 6.59178C17.8914 6.6 17.9761 6.62545 18.0533 6.66666C18.5737 6.91704 19.0008 7.32664 19.2728 7.83607C19.5447 8.3455 19.6474 8.92831 19.5658 9.5C19.4172 10.2291 19.074 10.9044 18.5725 11.4542" stroke="white" stroke-width="2" stroke-miterlimit="10" stroke-linecap="round"/>
<path d="M10.75 16.9166C12.4167 17.2499 13.9292 17.2749 16.0833 14.5833" stroke="white" stroke-width="2" stroke-linecap="round" stroke-linejoin="round"/>
</g>
<defs>
<clipPath id="clip0_7_2930">
<rect width="20" height="20" fill="white"/>
</clipPath>
</defs>
</svg>
